<svg width="16" height="16" viewBox="0 0 16 16" fill="none" xmlns="http://www.w3.org/2000/svg">
<g id="en 1" clip-path="url(#clip0_1799_1415)">
<path id="Vector" d="M8 16C12.4183 16 16 12.4183 16 8C16 3.58172 12.4183 0 8 0C3.58172 0 0 3.58172 0 8C0 12.4183 3.58172 16 8 16Z" fill="white"/>
<g id="Group">
<path id="Vector_2" d="M1.65375 3.12938C1.01627 3.95794 0.548008 4.90382 0.275627 5.91313H4.4375L1.65375 3.12938ZM15.7244 5.91313C15.452 4.90382 14.9837 3.95795 14.3463 3.12938L11.5625 5.91313H15.7244ZM0.275627 10.0869C0.548031 11.0962 1.01629 12.042 1.65375 12.8706L4.43719 10.0869H0.275627ZM12.8706 1.65375C12.0421 1.01628 11.0962 0.548015 10.0869 0.275627V4.4375L12.8706 1.65375ZM3.12938 14.3463C3.95795 14.9837 4.90382 15.452 5.91313 15.7244V11.5625L3.12938 14.3463ZM5.91313 0.275627C4.90382 0.54803 3.95796 1.01629 3.12938 1.65375L5.91313 4.4375V0.275314V0.275627ZM10.0869 15.7244C11.0962 15.452 12.042 14.9837 12.8706 14.3463L10.0869 11.5625V15.7244ZM11.5625 10.0869L14.3463 12.8706C14.9837 12.0421 15.452 11.0962 15.7244 10.0869H11.5625Z" fill="#00247D"/>
</g>
<g id="Group_2">
<path id="Vector_3" d="M15.9322 6.95637H9.04379V0.0682408C8.35108 -0.0219687 7.64961 -0.0219687 6.95691 0.0682408V6.95637H0.0678479C-0.0223616 7.64907 -0.0223616 8.35054 0.0678479 9.04324H6.95629V15.932C7.64898 16.0222 8.35046 16.0222 9.04316 15.932V9.04387H15.9319C16.0221 8.35117 16.0221 7.64969 15.9319 6.95699L15.9322 6.95637Z" fill="#CF142B"/>
<path id="Vector_4" d="M10.0869 10.0869L13.6569 13.6569C13.821 13.4926 13.9779 13.3213 14.1272 13.1434L11.0709 10.0872H10.0869V10.0869ZM5.91312 10.0869L2.34312 13.6569C2.50738 13.821 2.67869 13.9779 2.85656 14.1272L5.91281 11.0709V10.0869H5.91312ZM5.91312 5.91312L2.34312 2.34312C2.17899 2.50738 2.02207 2.67869 1.87281 2.85656L4.92906 5.91281H5.91312V5.91312ZM10.0869 5.91312L13.6569 2.34312C13.4926 2.17898 13.3213 2.02207 13.1434 1.87281L10.0872 4.92906V5.91312H10.0869Z" fill="#CF142B"/>
</g>
</g>
<defs>
<clipPath id="clip0_1799_1415">
<rect width="16" height="16" fill="white"/>
</clipPath>
</defs>
</svg>
