<svg version="1.1" id="Layer_2" xmlns="http://www.w3.org/2000/svg" xmlns:xlink="http://www.w3.org/1999/xlink" x="0px" y="0px" viewBox="0 0 76.5 53" style="enable-background:new 0 0 76.5 53;" xml:space="preserve">
          <path d="M20.1,39.4c0,1.2-0.5,2.3-1.3,3.2c-0.8,0.8-2,1.3-3.2,1.3s-2.3-0.5-3.2-1.3s-1.3-2-1.3-3.2c0-1.2,0.5-2.3,1.3-3.2
          	c0.8-0.8,2-1.3,3.2-1.3c1.2,0,2.3,0.5,3.2,1.3C19.6,37.1,20.1,38.2,20.1,39.4L20.1,39.4z M18.1,39.4c0-0.7-0.3-1.3-0.7-1.7
          	c-0.5-0.5-1.1-0.7-1.7-0.7c-0.7,0-1.3,0.3-1.7,0.7c-0.5,0.5-0.7,1.1-0.7,1.7c0,0.7,0.3,1.3,0.7,1.7s1.1,0.7,1.7,0.7
          	c0.7,0,1.3-0.3,1.7-0.7C17.8,40.7,18.1,40,18.1,39.4L18.1,39.4z M70,35.5L69,36c0.4,1.1,0.6,2.2,0.6,3.4c0,2.7-1.2,5.4-3.3,7.2
          	c-2.1,1.8-4.8,2.6-7.5,2.3c-2.7-0.4-5.1-1.9-6.7-4.2l-1.1,0.6h0c-0.2,0.1-0.5,0.1-0.8,0.1c-0.3-0.1-0.5-0.3-0.6-0.5
          	c-0.9-1.7-1.3-3.5-1.3-5.4l-4.8,1.4c-0.1,0-0.2,0-0.3,0H28.9c-0.6,0-1-0.5-1-1v-0.1h-2.8c-0.1,2.7-1.3,5.2-3.4,6.9
          	c-2,1.7-4.7,2.5-7.4,2.2s-5-1.8-6.6-4s-2.1-4.9-1.5-7.6l-0.2-5.7v0c0-1.6,0.5-3.3,1.4-4.6c0.9-1.4,2.2-2.4,3.7-3.1
          	c-0.6-0.8-0.9-1.7-0.8-2.7c0.1-1,0.5-1.9,1.2-2.5c0.7-0.7,1.6-1,2.6-1h10.6c0.6,0,1,0.5,1,1c0,0.6-0.5,1-1,1H14.2
          	c-0.6,0-1.2,0.3-1.5,0.8c-0.3,0.5-0.4,1.2-0.1,1.7c0.2,0.6,0.7,1,1.3,1.1l0.1,0c0.1,0,0.2,0,0.3,0h16.4c0.1,0,0.2-0.1,0.3-0.1
          	c0.1,0,0.2,0,0.3,0c0.6-0.2,1-0.6,1.2-1.2c0.2-0.6,0.1-1.2-0.2-1.7c-0.3-0.5-0.9-0.8-1.5-0.8h-7.1c-0.6,0-1-0.5-1-1c0-0.6,0.5-1,1-1
          	h7.1c1.2,0,2.3,0.6,3,1.5c0.7,0.9,1,2.2,0.7,3.3c-0.3,1.2-1.1,2.1-2.2,2.5l1.1,8.8h8.2c3.4-3.4,5.2-8.1,4.8-12.9l-0.5-6L45.6,15
          	c-0.1,0-0.2,0.1-0.3,0.1c-0.4,0-0.8-0.3-0.9-0.7l-1.2-3.2l-4.7,0.5v0c-0.5,0.1-1-0.3-1.1-0.8l-0.8-3.3c-0.1-0.3,0-0.6,0.1-0.8
          	c0.2-0.2,0.4-0.4,0.7-0.4l16-2.7c0.5-0.1,1,0.2,1.1,0.7l2.1,5.9c0.1,0.3,0.1,0.5,0,0.8c-0.1,0.2-0.3,0.4-0.6,0.5l-3.4,1.1l7.6,9.8
          	c0.2,0.2,0.2,0.5,0.2,0.7l-0.2,2.2c-0.1,0.5-0.5,0.9-1,0.9L59,27.8c2.3-0.2,4.7,0.3,6.7,1.4c2,1.1,3.7,2.8,4.8,4.9
          	C70.7,34.6,70.5,35.2,70,35.5L70,35.5z M62.6,39.3l-4,2.1c0.5,0.4,1.1,0.6,1.7,0.5c0.6,0,1.2-0.3,1.6-0.8c0.4-0.5,0.7-1.1,0.7-1.7
          	C62.6,39.4,62.6,39.3,62.6,39.3L62.6,39.3z M23.1,39.4c0-2-0.8-3.9-2.2-5.3c-1.4-1.4-3.3-2.2-5.3-2.2s-3.9,0.8-5.3,2.2
          	c-1.4,1.4-2.2,3.3-2.2,5.3c0,2,0.8,3.9,2.2,5.3c1.4,1.4,3.3,2.2,5.3,2.2c2,0,3.9-0.8,5.3-2.2C22.3,43.3,23.1,41.4,23.1,39.4
          	L23.1,39.4z M67.6,39.4L67.6,39.4c0-0.8-0.1-1.7-0.4-2.5l-2.8,1.4v0c0.3,1.3,0,2.7-0.8,3.8c-0.8,1.1-2.1,1.7-3.5,1.8
          	c-1.4,0-2.7-0.5-3.5-1.6L54,43.7v0c1.2,1.7,3.1,2.9,5.3,3.1c2.1,0.2,4.3-0.4,5.8-1.8C66.7,43.5,67.6,41.5,67.6,39.4L67.6,39.4z"></path>
          </svg>