<svg width="28" height="28" viewBox="0 0 28 28" fill="none" xmlns="http://www.w3.org/2000/svg">
<path d="M1.68 4.47998C0.759063 4.47998 0 5.23904 0 6.15998V19.6C0 20.5209 0.759063 21.28 1.68 21.28H3.9725C4.23938 22.8681 5.61969 24.08 7.28 24.08C8.94031 24.08 10.3206 22.8681 10.5875 21.28H15.785C16.1919 21.28 16.5528 21.1028 16.835 20.8425C17.1238 21.1006 17.4934 21.28 17.92 21.28H18.5325C18.7994 22.8681 20.1797 24.08 21.84 24.08C23.6884 24.08 25.2 22.5684 25.2 20.72C25.2 18.8715 23.6884 17.36 21.84 17.36C20.1797 17.36 18.7994 18.5719 18.5325 20.16H17.92C17.8259 20.16 17.675 20.09 17.5525 19.9675C17.43 19.845 17.36 19.694 17.36 19.6V8.95998C17.36 8.86592 17.43 8.71498 17.5525 8.59248C17.675 8.46998 17.8259 8.39998 17.92 8.39998H22.4C22.8616 8.39998 23.5047 8.91842 23.905 9.41498L23.975 9.51998H21.28C20.3831 9.51998 19.6 10.244 19.6 11.2V13.44C19.6 13.9059 19.81 14.315 20.1075 14.6125C20.405 14.91 20.8141 15.12 21.28 15.12H26.88V19.6C26.88 19.694 26.81 19.845 26.6875 19.9675C26.565 20.09 26.4141 20.16 26.32 20.16H25.2V21.28H26.32C26.7859 21.28 27.195 21.07 27.4925 20.7725C27.79 20.475 28 20.0659 28 19.6V14.2275C28 13.5975 27.7594 13.02 27.545 12.5825C27.3306 12.145 27.1075 11.83 27.1075 11.83V11.8125L24.815 8.73248H24.7975V8.71498C24.3009 8.09373 23.5047 7.27998 22.4 7.27998H17.92C17.7188 7.27998 17.535 7.31717 17.36 7.38498V6.15998C17.36 5.23904 16.6009 4.47998 15.68 4.47998H1.68ZM1.68 5.59998H15.68C15.9906 5.59998 16.24 5.84936 16.24 6.15998V19.705C16.24 19.9653 16.0453 20.16 15.785 20.16H10.5875C10.3206 18.5719 8.94031 17.36 7.28 17.36C5.61969 17.36 4.23938 18.5719 3.9725 20.16H1.68C1.36938 20.16 1.12 19.9106 1.12 19.6V6.15998C1.12 5.84936 1.36938 5.59998 1.68 5.59998ZM21.28 10.64H24.815L26.1975 12.4775L26.215 12.495C26.2259 12.5103 26.3769 12.7247 26.5475 13.0725C26.6897 13.3612 26.7641 13.7047 26.81 14H21.28C21.1859 14 21.035 13.93 20.9125 13.8075C20.79 13.685 20.72 13.534 20.72 13.44V11.2C20.72 10.9244 21.0569 10.64 21.28 10.64ZM2.8 11.2V14.455H3.535V13.1075H4.865V12.5475H3.535V11.8125H5.04V11.2H2.8ZM5.6 11.2V14.3325H6.2125V13.1075H6.9475C7.45063 13.1075 7.45063 13.4969 7.5075 14C7.5075 14.1115 7.50313 14.2209 7.56 14.3325H8.295C8.18344 14.2209 8.1725 13.8294 8.1725 13.7725C8.1725 12.9894 7.84656 12.88 7.735 12.88C7.90344 12.8231 8.225 12.5956 8.225 12.0925C8.225 11.364 7.56 11.2 7.28 11.2H5.6ZM8.96 11.2V14.455H11.375V13.825H9.625V13.055H11.2V12.495H9.625V11.8125H11.305V11.2H8.96ZM12.145 11.2V14.455H14.56V13.825H12.8275V13.055H14.385V12.495H12.8275V11.8125H14.5075V11.2H12.145ZM6.265 11.76H7.0525C7.22094 11.76 7.56 11.8234 7.56 12.215C7.56 12.6634 7.22094 12.6525 7.0525 12.6525H6.265V11.76ZM7.28 18.48C8.52469 18.48 9.52 19.4753 9.52 20.72C9.52 21.9647 8.52469 22.96 7.28 22.96C6.03531 22.96 5.04 21.9647 5.04 20.72C5.04 19.4753 6.03531 18.48 7.28 18.48ZM21.84 18.48C23.0847 18.48 24.08 19.4753 24.08 20.72C24.08 21.9647 23.0847 22.96 21.84 22.96C20.5953 22.96 19.6 21.9647 19.6 20.72C19.6 19.4753 20.5953 18.48 21.84 18.48Z" fill="#F7F7F6"/>
</svg>
